<svg width="20" height="20" viewBox="0 0 20 20" fill="none" xmlns="http://www.w3.org/2000/svg">
<path fill-rule="evenodd" clip-rule="evenodd" d="M10 0C15.5228 0 20 4.47715 20 10C20 15.5228 15.5228 20 10 20C4.47715 20 0 15.5228 0 10C0 4.47715 4.47715 0 10 0ZM15.1387 6.0099C14.681 5.55225 13.9391 5.55225 13.4814 6.0099L8.01238 11.4789L6.52083 9.98738C6.06318 9.52973 5.32119 9.52973 4.86355 9.98738C4.4059 10.445 4.4059 11.187 4.86355 11.6447L7.18374 13.9649C7.64139 14.4225 8.38338 14.4225 8.84102 13.9649L15.1387 7.66718C15.5963 7.20954 15.5963 6.46755 15.1387 6.0099Z" fill="#08AF61"/>
</svg>
